<svg width="72" height="17" viewBox="0 0 72 17" fill="none" xmlns="http://www.w3.org/2000/svg">
<line x1="69.375" y1="16" x2="69.375" y2="1" stroke="#FF0000" stroke-width="0.25"/>
<line x1="63.125" y1="16" x2="63.125" y2="1" stroke="#FF0000" stroke-width="0.25"/>
<line x1="65.125" y1="16" x2="65.125" y2="1" stroke="#FF0000" stroke-width="0.25"/>
<line x1="59.875" y1="16" x2="59.875" y2="1" stroke="#FF0000" stroke-width="0.25"/>
<line x1="55.625" y1="16" x2="55.625" y2="1" stroke="#FF0000" stroke-width="0.25"/>
<line x1="37.875" y1="16" x2="37.875" y2="1" stroke="#FF0000" stroke-width="0.25"/>
<line x1="0.875" y1="16" x2="0.875" y2="1" stroke="#FF0000" stroke-width="0.75"/>
<line x1="6.125" y1="16" x2="6.125" y2="1" stroke="#FF0000" stroke-width="0.75"/>
<line x1="9.375" y1="16" x2="9.375" y2="1" stroke="#FF0000" stroke-width="0.75"/>
<line x1="21.875" y1="16" x2="21.875" y2="1" stroke="#FF0000" stroke-width="0.75"/>
<line x1="57.625" y1="16" x2="57.625" y2="1" stroke="#FF0000" stroke-width="0.75"/>
<line x1="67.375" y1="16" x2="67.375" y2="1" stroke="#FF0000" stroke-width="0.75"/>
<line x1="31.625" y1="16" x2="31.625" y2="1" stroke="#FF0000" stroke-width="0.75"/>
<line x1="42.125" y1="16" x2="42.125" y2="1" stroke="#FF0000" stroke-width="0.75"/>
<line x1="45.875" y1="16" x2="45.875" y2="1" stroke="#FF0000" stroke-width="0.75"/>
<line x1="16" y1="16" x2="16" y2="1" stroke="#FF0000" stroke-width="0.5"/>
<line x1="61.625" y1="16" x2="61.625" y2="1" stroke="#FF0000" stroke-width="0.25"/>
<line x1="3" y1="16" x2="3" y2="1" stroke="#FF0000" stroke-width="0.5"/>
<line x1="36.25" y1="16" x2="36.25" y2="1" stroke="#FF0000" stroke-width="0.5"/>
<line x1="18" y1="16" x2="18" y2="1" stroke="#FF0000" stroke-width="0.5"/>
<line x1="71.5" y1="16" x2="71.5" y2="1" stroke="#FF0000" stroke-width="0.5"/>
<line x1="52" y1="16" x2="52" y2="1" stroke="#FF0000" stroke-width="0.5"/>
<line x1="53.75" y1="16" x2="53.75" y2="1" stroke="#FF0000"/>
<line x1="13" y1="16" x2="13" y2="1" stroke="#FF0000" stroke-width="0.5"/>
<line x1="4.875" y1="16" x2="4.875" y2="1" stroke="#FF0000" stroke-width="0.25"/>
<line x1="14.875" y1="16" x2="14.875" y2="1" stroke="#FF0000" stroke-width="0.25"/>
<line x1="20.125" y1="16" x2="20.125" y2="1" stroke="#FF0000" stroke-width="0.25"/>
<line x1="24.125" y1="16" x2="24.125" y2="1" stroke="#FF0000" stroke-width="0.25"/>
<line x1="25.375" y1="16" x2="25.375" y2="1" stroke="#FF0000" stroke-width="1.25"/>
<line x1="28.125" y1="16" x2="28.125" y2="1" stroke="#FF0000" stroke-width="0.25"/>
<line x1="30.125" y1="16" x2="30.125" y2="1" stroke="#FF0000" stroke-width="0.25"/>
<line x1="33.875" y1="16" x2="33.875" y2="1" stroke="#FF0000" stroke-width="0.25"/>
<line x1="40.125" y1="16" x2="40.125" y2="1" stroke="#FF0000" stroke-width="0.25"/>
<line x1="4.875" y1="16" x2="4.875" y2="1" stroke="#FF0000" stroke-width="0.25"/>
<line x1="48" y1="16" x2="48" y2="1" stroke="#FF0000" stroke-width="0.5"/>
<path d="M15 16L50 1V16H15Z" fill="#FF0000"/>
<path d="M50 1L15 16H50V1Z" fill="#FF0000"/>
<path d="M15 16L50 1V16H15Z" stroke="#FF0000" stroke-width="0.25"/>
<path d="M50 1L15 16H50V1Z" stroke="#FF0000" stroke-width="0.25"/>
</svg>
